SplineFontDB: 3.2
FontName: badfont
FullName: badfont
FamilyName: badfont
Weight: Regular
Copyright: Copyright (c) 2020, Chua Hou
UComments: "2020-4-27: Created with FontForge (http://fontforge.org)"
Version: 1.1.0
ItalicAngle: 0
UnderlinePosition: -153
UnderlineWidth: 76
Ascent: 819
Descent: 205
InvalidEm: 0
LayerCount: 2
Layer: 0 0 "Back" 1
Layer: 1 0 "Fore" 0
XUID: [1021 809 -1196267529 16169608]
FSType: 0
OS2Version: 0
OS2_WeightWidthSlopeOnly: 0
OS2_UseTypoMetrics: 1
CreationTime: 1587955320
ModificationTime: 1588427422
PfmFamily: 49
TTFWeight: 400
TTFWidth: 5
LineGap: 138
VLineGap: 0
OS2TypoAscent: 0
OS2TypoAOffset: 1
OS2TypoDescent: 0
OS2TypoDOffset: 1
OS2TypoLinegap: 138
OS2WinAscent: 0
OS2WinAOffset: 1
OS2WinDescent: 0
OS2WinDOffset: 1
HheadAscent: 0
HheadAOffset: 1
HheadDescent: 0
HheadDOffset: 1
OS2Vendor: 'PfEd'
MarkAttachClasses: 1
DEI: 91125

StartChar: A
Encoding: 65 65 0
Width: 614
VWidth: 0
Flags: HW
LayerCount: 2
Fore
SplineSet
248 666 m 0
 286 749 294 758 330 758 c 0
 381 758 385 751 437 595 c 0
 484 454 500 385 529 180 c 0
 550 35 542 -6 495 -6 c 0
 458 -6 444 27 436 136 c 0
 432 187 424 234 418 240 c 0
 412 246 357 252 297 255 c 2
 188 260 l 1
 163 178 l 2
 123 46 117 35 80 35 c 0
 62 35 44 43 40 53 c 0
 32 75 70 222 105 301 c 0
 118 331 147 405 168 465 c 0
 189 525 225 615 248 666 c 0
372 493 m 0
 357 537 340 578 334 584 c 0
 328 590 302 545 277 485 c 0
 252 425 235 372 239 368 c 0
 243 364 281 358 323 353 c 0
 398 345 399 345 399 379 c 0
 399 398 387 449 372 493 c 0
EndSplineSet
Validated: 33
EndChar

StartChar: B
Encoding: 66 66 1
Width: 614
VWidth: 0
Flags: HW
LayerCount: 2
Back
Fore
SplineSet
237 714 m 4
 328 728 453 683 493 622 c 4
 526 571 523 472 488 434 c 6
 459 404 l 5
 493 365 l 6
 532 321 538 240 507 181 c 4
 485 139 411 65 367 43 c 4
 301 9 128 37 102 85 c 4
 93 102 93 126 102 155 c 4
 124 223 156 420 166 547 c 4
 177 684 186 706 237 714 c 4
387 594 m 4
 371 606 337 615 312 615 c 4
 267 615 267 615 267 547 c 6
 267 479 l 5
 320 479 l 6
 349 479 383 483 395 487 c 4
 428 499 422 569 387 594 c 4
397 336 m 4
 378 348 336 361 303 365 c 6
 244 372 l 5
 221 259 l 6
 196 131 199 123 286 123 c 4
 401 123 483 280 397 336 c 4
EndSplineSet
Validated: 33
EndChar

StartChar: C
Encoding: 67 67 2
Width: 614
VWidth: 0
Flags: HW
LayerCount: 2
Back
Fore
SplineSet
337 650 m 0
 403 673 403 673 448 650 c 0
 489 629 538 537 530 497 c 0
 522 455 492 460 444 511 c 0
 393 565 372 570 315 540 c 0
 200 481 120 285 163 172 c 0
 189 103 364 91 442 152 c 0
 518 212 567 140 492 77 c 0
 414 11 302 -2 186 39 c 0
 102 69 71 109 60 206 c 0
 38 393 158 586 337 650 c 0
EndSplineSet
Validated: 33
EndChar

StartChar: D
Encoding: 68 68 3
Width: 614
VWidth: 0
Flags: HW
LayerCount: 2
Back
Fore
SplineSet
224 673 m 0
 291 685 431 649 489 605 c 0
 556 554 579 499 579 388 c 0
 579 309 572 281 542 229 c 0
 487 134 437 101 283 53 c 0
 207 29 137 4 130 -2 c 0
 123 -9 104 -14 86 -14 c 0
 46 -14 33 32 52 104 c 0
 59 133 70 203 75 259 c 0
 80 315 96 416 110 483 c 0
 137 610 169 663 224 673 c 0
392 553 m 0
 339 575 237 580 226 561 c 0
 215 544 178 321 168 216 c 0
 158 109 156 110 291 152 c 0
 440 199 505 291 485 427 c 0
 474 499 454 528 392 553 c 0
EndSplineSet
Validated: 33
EndChar

StartChar: E
Encoding: 69 69 4
Width: 614
VWidth: 0
Flags: HW
LayerCount: 2
Back
Fore
SplineSet
160 620 m 0
 171 631 454 631 483 620 c 0
 512 609 512 552 483 541 c 0
 471 536 414 532 355 532 c 2
 248 532 l 1
 240 461 l 2
 235 421 223 356 220 344 c 0
 215 326 236 345 330 338 c 0
 473 328 494 319 489 274 c 2
 485 239 l 1
 362 243 l 2
 294 245 215 252 206 246 c 0
 197 240 202 196 197 162 c 2
 188 100 l 1
 302 90 l 2
 365 85 427 77 441 73 c 0
 472 64 472 6 441 -6 c 0
 418 -15 202 -5 141 8 c 0
 85 19 82 49 116 280 c 0
 134 400 150 523 150 554 c 0
 150 585 155 615 160 620 c 0
EndSplineSet
Validated: 33
EndChar

StartChar: F
Encoding: 70 70 5
Width: 614
VWidth: 0
Flags: HW
LayerCount: 2
Back
Fore
SplineSet
233 731 m 0
 279 742 344 746 403 742 c 0
 531 732 546 727 546 688 c 0
 546 647 506 636 406 647 c 0
 346 654 240 641 225 625 c 0
 223 623 219 581 216 532 c 2
 212 444 l 1
 324 449 l 2
 461 455 492 445 492 401 c 0
 492 362 477 359 325 351 c 0
 266 348 215 342 210 337 c 0
 206 333 197 263 191 182 c 0
 185 101 176 24 171 11 c 0
 161 -14 103 -22 90 -1 c 0
 77 20 127 670 143 692 c 0
 151 703 192 721 233 731 c 0
EndSplineSet
Validated: 33
EndChar

StartChar: G
Encoding: 71 71 6
Width: 614
VWidth: 0
Flags: HW
LayerCount: 2
Back
Fore
SplineSet
289 642 m 0
 319 660 358 669 406 669 c 0
 467 669 485 663 527 624 c 0
 608 550 553 496 464 562 c 0
 408 603 347 588 262 512 c 0
 185 443 141 357 119 240 c 0
 104 161 105 159 141 128 c 0
 192 85 314 70 363 102 c 0
 407 130 481 213 494 247 c 0
 503 271 496 273 403 273 c 0
 298 273 266 292 306 332 c 0
 331 357 571 374 597 353 c 0
 622 332 620 321 574 205 c 0
 552 149 533 88 533 72 c 0
 533 42 501 0 478 0 c 0
 471 0 458 8 447 19 c 0
 431 35 424 36 395 20 c 0
 377 10 321 1 272 1 c 0
 197 0 174 6 122 39 c 0
 28 99 22 110 30 223 c 0
 35 290 48 348 72 400 c 0
 108 481 210 594 289 642 c 0
EndSplineSet
Validated: 33
EndChar

StartChar: H
Encoding: 72 72 7
Width: 614
VWidth: 0
Flags: HW
LayerCount: 2
Fore
SplineSet
440 653 m 0
 462 675 485 674 506 649 c 0
 519 633 521 560 511 317 c 2
 498 7 l 1
 461 3 l 2
 415 -2 411 13 406 177 c 2
 403 294 l 1
 307 302 l 2
 254 307 210 309 208 307 c 0
 206 306 199 241 195 165 c 0
 186 7 165 -35 111 -1 c 0
 97 8 93 76 94 319 c 0
 94 490 98 634 103 642 c 0
 117 665 162 657 177 628 c 0
 185 614 191 560 191 508 c 2
 191 414 l 1
 242 405 l 2
 271 400 319 396 350 396 c 2
 406 396 l 1
 414 459 l 2
 419 494 423 548 423 580 c 0
 423 611 431 644 440 653 c 0
EndSplineSet
Validated: 33
EndChar

StartChar: I
Encoding: 73 73 8
Width: 614
VWidth: 0
Flags: HW
LayerCount: 2
Back
Fore
SplineSet
184 682 m 0
 206 689 295 694 378 695 c 0
 501 696 533 692 547 674 c 0
 560 658 561 646 551 630 c 0
 540 613 516 608 449 608 c 2
 362 608 l 1
 352 532 l 2
 347 491 339 377 334 279 c 2
 325 101 l 1
 412 88 l 2
 493 76 498 73 498 41 c 2
 498 7 l 1
 348 5 l 2
 265 4 186 0 170 -5 c 0
 154 -10 132 -7 118 3 c 0
 97 18 97 24 113 46 c 0
 123 60 152 76 178 81 c 2
 225 90 l 1
 240 233 l 2
 248 311 259 427 264 489 c 2
 273 603 l 1
 200 595 l 2
 143 588 125 590 119 606 c 0
 108 635 136 668 184 682 c 0
EndSplineSet
Validated: 33
EndChar

StartChar: J
Encoding: 74 74 9
Width: 614
VWidth: 0
Flags: HW
LayerCount: 2
Back
Fore
SplineSet
261 637 m 0
 294 646 373 653 437 654 c 0
 564 655 607 639 598 593 c 0
 594 571 581 567 511 567 c 2
 430 567 l 1
 427 519 l 2
 415 340 391 151 375 97 c 0
 346 2 254 -68 157 -68 c 0
 115 -68 32 -2 15 46 c 0
 -9 113 -3 175 29 192 c 0
 68 213 88 190 89 120 c 0
 90 54 135 8 183 21 c 0
 247 39 273 61 287 108 c 0
 304 165 341 449 341 517 c 0
 341 567 351 566 221 537 c 0
 201 532 188 537 182 553 c 0
 168 590 195 620 261 637 c 0
EndSplineSet
Validated: 33
EndChar

StartChar: K
Encoding: 75 75 10
Width: 614
VWidth: 0
Flags: HW
LayerCount: 2
Back
Fore
SplineSet
437 565 m 0
 512 614 552 626 567 601 c 0
 584 573 558 539 494 502 c 0
 459 482 395 431 351 389 c 0
 265 306 264 290 339 232 c 0
 359 216 401 172 433 134 c 0
 479 79 489 61 477 46 c 0
 468 35 455 27 446 27 c 0
 437 27 379 79 315 143 c 0
 251 207 195 259 190 259 c 0
 180 259 164 142 164 72 c 0
 164 2 100 -38 78 18 c 0
 68 44 120 543 136 573 c 0
 151 602 197 610 212 587 c 0
 217 579 214 533 205 485 c 0
 196 437 192 390 195 380 c 0
 199 369 230 391 281 439 c 0
 325 481 396 538 437 565 c 0
EndSplineSet
Validated: 33
EndChar

StartChar: L
Encoding: 76 76 11
Width: 614
VWidth: 0
Flags: HW
LayerCount: 2
Back
Fore
SplineSet
190 550 m 0
 204 587 248 602 265 575 c 0
 269 568 261 487 247 394 c 0
 233 301 217 196 212 160 c 2
 203 96 l 1
 352 104 l 2
 483 112 503 110 510 91 c 0
 529 41 508 34 326 16 c 0
 228 7 143 2 136 7 c 0
 129 11 123 51 123 93 c 0
 123 182 169 495 190 550 c 0
EndSplineSet
Validated: 33
EndChar

StartChar: M
Encoding: 77 77 12
Width: 614
VWidth: 0
Flags: HW
LayerCount: 2
Back
Fore
SplineSet
486 583 m 0
 509 620 553 624 571 590 c 0
 592 550 619 257 612 145 c 0
 605 30 588 -3 549 22 c 0
 529 34 526 65 522 227 c 0
 520 331 513 421 507 427 c 0
 501 433 458 361 412 267 c 0
 348 136 323 96 303 96 c 0
 263 96 252 118 218 257 c 0
 201 327 182 379 177 373 c 0
 162 356 95 53 95 4 c 0
 95 -40 71 -60 41 -41 c 0
 2 -17 9 85 66 306 c 0
 96 425 129 530 138 541 c 0
 147 552 167 559 182 557 c 0
 212 553 258 454 293 322 c 2
 311 253 l 1
 349 335 l 2
 382 406 419 474 486 583 c 0
EndSplineSet
Validated: 33
EndChar

StartChar: N
Encoding: 78 78 13
Width: 614
VWidth: 0
Flags: HW
LayerCount: 2
Back
Fore
SplineSet
501 591 m 0
 521 631 569 642 581 609 c 0
 585 598 576 552 560 504 c 0
 545 456 527 362 519 294 c 0
 511 226 498 131 489 82 c 0
 461 -74 429 -76 343 72 c 0
 228 271 138 410 132 400 c 0
 128 394 121 305 116 201 c 0
 108 45 102 10 83 0 c 0
 28 -29 22 -2 32 229 c 0
 41 446 53 519 82 519 c 0
 90 519 106 528 117 539 c 0
 142 564 191 545 191 511 c 0
 191 476 395 148 411 158 c 0
 416 161 425 214 430 277 c 0
 440 396 470 528 501 591 c 0
EndSplineSet
Validated: 33
EndChar

StartChar: O
Encoding: 79 79 14
Width: 614
VWidth: 0
Flags: HW
LayerCount: 2
Back
Fore
SplineSet
227 561 m 0
 298 644 313 655 355 655 c 0
 425 655 488 611 521 537 c 0
 545 483 549 456 542 370 c 0
 533 246 516 183 475 123 c 0
 301 -133 -3 1 68 303 c 0
 88 386 112 426 227 561 c 0
432 526 m 0
 420 545 402 559 393 559 c 0
 327 556 206 431 170 330 c 0
 160 302 151 248 151 208 c 0
 150 149 156 129 184 101 c 0
 247 38 350 74 410 180 c 0
 454 258 467 472 432 526 c 0
EndSplineSet
Validated: 33
EndChar

StartChar: P
Encoding: 80 80 15
Width: 614
VWidth: 0
Flags: HW
LayerCount: 2
Back
Fore
SplineSet
93 706 m 0
 107 720 117 720 139 709 c 0
 157 699 199 697 254 703 c 0
 445 724 560 664 562 542 c 0
 563 466 528 412 446 364 c 0
 379 325 259 287 202 287 c 2
 164 287 l 1
 164 158 l 2
 164 58 159 24 142 7 c 0
 84 -51 79 -25 77 352 c 0
 76 614 79 692 93 706 c 0
448 593 m 0
 426 608 387 614 308 613 c 0
 248 612 190 609 181 605 c 0
 169 600 164 564 164 490 c 2
 164 382 l 1
 217 382 l 2
 284 382 376 414 433 458 c 0
 489 501 496 560 448 593 c 0
EndSplineSet
Validated: 33
EndChar

StartChar: Q
Encoding: 81 81 16
Width: 614
VWidth: 0
Flags: HW
LayerCount: 2
Back
Fore
SplineSet
329 721 m 0
 414 745 489 713 527 639 c 0
 556 583 544 398 503 279 c 2
 474 194 l 1
 515 141 l 2
 576 63 589 34 571 16 c 0
 545 -10 529 -2 476 59 c 2
 426 116 l 1
 395 87 l 2
 253 -43 83 -30 43 115 c 0
 18 204 66 400 151 560 c 0
 198 649 256 701 329 721 c 0
450 601 m 0
 426 646 324 640 278 591 c 0
 177 482 92 192 137 108 c 0
 159 67 231 74 298 123 c 0
 361 169 367 190 328 225 c 0
 295 255 292 311 322 323 c 0
 333 327 353 321 367 309 c 0
 381 297 398 287 406 287 c 0
 438 287 476 553 450 601 c 0
EndSplineSet
Validated: 33
EndChar

StartChar: R
Encoding: 82 82 17
Width: 614
VWidth: 0
Flags: HW
LayerCount: 2
Back
Fore
SplineSet
220 636 m 0
 283 659 404 659 448 636 c 0
 513 602 536 565 535 497 c 0
 534 463 530 422 525 406 c 0
 514 368 415 263 366 237 c 0
 346 226 328 212 328 206 c 0
 328 200 355 184 388 172 c 0
 469 141 553 67 542 37 c 0
 530 6 489 8 445 42 c 0
 404 74 236 149 203 150 c 0
 187 150 178 129 169 72 c 0
 158 1 154 -7 123 -7 c 0
 89 -7 89 -5 92 96 c 0
 94 152 108 274 123 365 c 0
 138 456 147 539 143 549 c 0
 132 576 169 617 220 636 c 0
419 553 m 0
 383 579 319 580 273 557 c 0
 243 542 236 523 217 406 c 0
 205 332 198 270 203 267 c 0
 220 257 328 309 373 349 c 0
 458 424 477 512 419 553 c 0
EndSplineSet
Validated: 33
EndChar

StartChar: S
Encoding: 83 83 18
Width: 614
VWidth: 0
Flags: HW
LayerCount: 2
Back
Fore
SplineSet
274 701 m 0
 356 743 498 719 569 653 c 0
 634 592 590 532 519 585 c 0
 498 601 453 619 419 628 c 0
 311 655 241 597 249 485 c 0
 252 434 258 427 344 375 c 0
 554 249 580 163 445 44 c 0
 386 -8 283 -24 160 -0 c 0
 74 17 27 44 27 78 c 0
 27 109 60 111 147 89 c 0
 192 77 244 68 262 68 c 0
 325 68 394 96 416 131 c 0
 455 191 434 224 311 297 c 0
 172 380 159 399 166 512 c 0
 172 614 200 663 274 701 c 0
EndSplineSet
Validated: 33
EndChar

StartChar: T
Encoding: 84 84 19
Width: 614
VWidth: 0
Flags: HW
LayerCount: 2
Back
Fore
SplineSet
89 659 m 0
 156 669 396 669 494 660 c 0
 587 651 608 636 591 591 c 0
 584 572 568 571 464 579 c 2
 344 588 l 1
 337 523 l 2
 333 487 318 357 305 234 c 0
 286 58 277 8 259 -1 c 0
 245 -8 227 -6 212 5 c 0
 189 21 189 30 210 168 c 0
 222 249 236 376 241 452 c 2
 250 590 l 1
 183 581 l 2
 146 576 103 565 86 557 c 0
 50 539 14 561 14 601 c 0
 14 633 38 652 89 659 c 0
EndSplineSet
Validated: 33
EndChar

StartChar: U
Encoding: 85 85 20
Width: 614
VWidth: 0
Flags: HW
LayerCount: 2
Back
Fore
SplineSet
513 612 m 0
 555 672 609 625 594 542 c 0
 590 518 581 390 576 258 c 0
 566 1 555 -40 505 -14 c 0
 484 -3 478 19 475 104 c 2
 471 209 l 1
 410 131 l 2
 346 50 301 27 201 27 c 0
 129 27 76 58 47 119 c 0
 26 163 24 197 30 380 c 0
 37 598 51 643 101 624 c 0
 120 617 123 582 123 377 c 0
 123 149 125 137 152 122 c 0
 206 92 280 119 344 190 c 0
 391 243 411 282 447 397 c 0
 471 475 492 548 492 560 c 0
 492 572 501 596 513 612 c 0
EndSplineSet
Validated: 33
EndChar

StartChar: V
Encoding: 86 86 21
Width: 614
VWidth: 0
Flags: HW
LayerCount: 2
Back
Fore
SplineSet
464 587 m 0
 499 655 512 669 537 666 c 0
 590 659 577 612 479 444 c 0
 426 354 354 218 317 142 c 0
 222 -53 190 -55 132 131 c 0
 96 246 41 511 41 567 c 0
 41 585 49 605 61 615 c 0
 98 646 116 606 157 403 c 0
 178 298 201 196 208 177 c 0
 220 144 223 147 265 232 c 0
 289 281 334 361 365 412 c 0
 396 463 441 541 464 587 c 0
EndSplineSet
Validated: 33
EndChar

StartChar: W
Encoding: 87 87 22
Width: 614
VWidth: 0
Flags: HW
LayerCount: 2
Back
Fore
SplineSet
29 595 m 0
 50 621 79 620 94 591 c 0
 101 577 123 499 143 416 c 0
 163 333 182 265 184 263 c 0
 186 261 204 326 224 407 c 0
 272 595 281 614 313 614 c 0
 349 614 351 609 396 442 c 0
 417 363 438 295 442 291 c 0
 446 287 456 310 464 343 c 0
 524 579 551 628 595 584 c 0
 613 566 612 550 582 446 c 0
 563 381 538 272 525 202 c 0
 496 42 496 42 471 33 c 0
 433 19 414 53 368 218 c 0
 343 308 319 382 315 382 c 0
 311 382 289 315 268 233 c 0
 224 66 202 24 160 30 c 0
 128 35 119 59 96 206 c 0
 87 262 65 368 47 442 c 0
 21 544 17 580 29 595 c 0
EndSplineSet
Validated: 33
EndChar

StartChar: X
Encoding: 88 88 23
Width: 614
VWidth: 0
Flags: HW
LayerCount: 2
Back
Fore
SplineSet
449 574 m 0
 512 649 567 710 572 710 c 0
 587 710 614 677 614 659 c 0
 614 650 559 578 492 500 c 0
 425 422 369 351 369 343 c 0
 369 316 424 214 480 139 c 0
 538 61 544 10 497 3 c 0
 476 0 454 23 400 105 c 0
 362 164 322 227 313 245 c 2
 296 279 l 1
 242 218 l 2
 213 185 160 115 127 64 c 0
 78 -10 59 -28 36 -25 c 0
 20 -23 5 -10 3 3 c 0
 -2 30 78 152 177 268 c 0
 214 312 246 358 246 369 c 0
 246 396 171 544 135 588 c 0
 104 626 112 669 150 669 c 0
 182 669 239 600 284 509 c 0
 303 469 323 438 327 438 c 0
 331 438 386 499 449 574 c 0
EndSplineSet
Validated: 33
EndChar

StartChar: Y
Encoding: 89 89 24
Width: 614
VWidth: 0
Flags: HW
LayerCount: 2
Back
Fore
SplineSet
467 672 m 0
 497 702 524 703 546 676 c 0
 559 660 558 648 541 621 c 0
 529 602 513 587 507 587 c 0
 501 587 480 565 460 536 c 0
 440 508 391 448 350 403 c 0
 292 340 274 310 274 277 c 0
 273 191 242 25 224 7 c 0
 201 -16 167 -6 158 25 c 0
 154 38 158 72 165 102 c 0
 172 132 177 205 177 262 c 0
 177 373 157 444 99 537 c 0
 62 596 60 626 89 637 c 0
 120 649 161 606 206 516 c 0
 228 472 251 437 257 437 c 0
 271 437 352 525 402 593 c 0
 424 623 453 658 467 672 c 0
EndSplineSet
Validated: 33
EndChar

StartChar: Z
Encoding: 90 90 25
Width: 614
VWidth: 0
Flags: HW
LayerCount: 2
Back
Fore
SplineSet
83 712 m 0
 127 740 446 714 487 680 c 0
 517 655 508 622 456 572 c 0
 415 533 355 441 355 418 c 0
 355 414 382 407 415 402 c 0
 476 393 497 373 483 335 c 0
 477 320 452 314 384 314 c 2
 294 314 l 1
 230 201 l 2
 195 140 170 85 173 79 c 0
 176 73 251 68 340 68 c 0
 508 68 547 56 528 7 c 0
 522 -10 490 -14 352 -13 c 0
 259 -13 160 -8 130 -3 c 0
 50 11 50 53 129 191 c 0
 191 299 202 328 179 328 c 0
 162 328 149 364 159 389 c 0
 163 399 186 410 209 412 c 0
 243 415 257 428 281 474 c 0
 297 505 324 548 340 568 c 0
 356 588 369 610 369 616 c 0
 369 622 321 629 264 630 c 0
 125 632 77 642 71 674 c 0
 68 688 74 706 83 712 c 0
EndSplineSet
Validated: 33
EndChar

StartChar: bracketleft
Encoding: 91 91 26
Width: 614
VWidth: 0
Flags: HW
LayerCount: 2
Back
Fore
SplineSet
374 689 m 0
 500 713 536 710 541 675 c 0
 547 632 519 618 371 593 c 2
 235 570 l 1
 217 433 l 2
 192 241 186 145 196 92 c 2
 205 46 l 1
 330 42 l 1
 455 38 l 1
 459 0 l 1
 464 -37 l 1
 315 -37 l 2
 107 -37 102 -32 103 156 c 0
 104 346 141 610 171 644 c 0
 184 658 214 670 237 670 c 0
 260 670 321 679 374 689 c 0
EndSplineSet
Validated: 33
EndChar

StartChar: backslash
Encoding: 92 92 27
Width: 614
VWidth: 0
Flags: HW
LayerCount: 2
Back
Fore
SplineSet
128 772 m 0
 137 796 182 797 201 774 c 0
 222 748 295 524 326 392 c 0
 341 327 368 235 386 189 c 0
 404 143 435 52 455 -15 c 0
 486 -118 488 -139 472 -155 c 0
 442 -185 409 -162 394 -101 c 0
 386 -70 372 -25 362 -3 c 0
 318 94 260 263 238 357 c 0
 225 413 193 525 167 605 c 0
 141 685 124 761 128 772 c 0
EndSplineSet
Validated: 33
EndChar

StartChar: bracketright
Encoding: 93 93 28
Width: 614
VWidth: 0
Flags: HW
LayerCount: 2
Back
Fore
SplineSet
116 716 m 0
 134 734 171 738 333 738 c 0
 576 738 575 740 525 557 c 0
 504 481 485 359 476 248 c 0
 468 147 454 38 444 4 c 2
 425 -58 l 1
 328 -67 l 2
 275 -72 219 -84 203 -92 c 0
 168 -111 132 -86 138 -47 c 0
 143 -17 233 17 309 17 c 0
 363 17 363 18 380 248 c 0
 388 349 404 468 416 513 c 0
 455 658 465 649 272 649 c 0
 127 649 101 653 98 672 c 0
 96 684 104 704 116 716 c 0
EndSplineSet
Validated: 33
EndChar

StartChar: asciicircum
Encoding: 94 94 29
Width: 614
VWidth: 0
Flags: HW
LayerCount: 2
Back
Fore
SplineSet
315 782 m 0
 337 790 371 778 384 759 c 0
 390 751 394 714 394 676 c 0
 394 638 404 574 416 535 c 0
 440 455 435 425 397 425 c 0
 362 425 344 448 324 524 c 0
 315 559 304 588 299 588 c 0
 294 588 277 570 260 547 c 0
 243 524 224 507 217 507 c 0
 193 507 164 549 173 572 c 0
 190 615 298 776 315 782 c 0
EndSplineSet
Validated: 33
EndChar

StartChar: underscore
Encoding: 95 95 30
Width: 614
VWidth: 0
Flags: HW
LayerCount: 2
Back
Fore
SplineSet
150 -2 m 0
 176 7 264 15 347 16 c 0
 507 17 551 4 541 -45 c 0
 536 -69 525 -71 400 -67 c 0
 325 -65 235 -69 198 -76 c 0
 118 -92 92 -84 98 -47 c 0
 101 -30 120 -13 150 -2 c 0
EndSplineSet
Validated: 33
EndChar

StartChar: grave
Encoding: 96 96 31
Width: 614
VWidth: 0
Flags: HW
LayerCount: 2
Back
Fore
SplineSet
226 755 m 0
 260 789 399 690 391 637 c 0
 384 592 344 597 279 651 c 0
 222 699 204 733 226 755 c 0
EndSplineSet
Validated: 33
EndChar

StartChar: a
Encoding: 97 97 32
Width: 614
VWidth: 0
Flags: HW
LayerCount: 2
Back
Fore
SplineSet
239 384 m 0
 271 405 299 410 367 406 c 0
 471 400 492 379 492 281 c 0
 492 244 499 176 508 128 c 0
 521 61 521 38 508 25 c 0
 484 1 449 26 430 81 c 2
 415 126 l 1
 377 76 l 2
 292 -35 248 -49 137 -5 c 0
 93 12 79 26 67 68 c 0
 54 115 56 128 88 199 c 0
 127 285 174 342 239 384 c 0
382 281 m 0
 382 334 369 338 287 310 c 0
 251 298 228 275 195 219 c 0
 171 178 150 130 150 113 c 0
 150 78 192 51 236 57 c 0
 279 63 382 221 382 281 c 0
EndSplineSet
Validated: 33
EndChar

StartChar: b
Encoding: 98 98 33
Width: 614
VWidth: 0
Flags: HW
LayerCount: 2
Back
Fore
SplineSet
131 771 m 0
 157 797 157 797 183 771 c 0
 207 747 211 609 194 400 c 0
 189 337 188 287 193 287 c 0
 197 287 224 305 251 327 c 0
 311 375 396 392 475 370 c 0
 539 352 573 303 573 228 c 0
 573 123 368 -12 229 2 c 0
 192 6 159 1 140 -11 c 0
 114 -27 105 -27 87 -12 c 0
 63 8 63 -10 103 382 c 0
 116 506 122 639 118 679 c 0
 112 732 116 756 131 771 c 0
483 257 m 0
 473 273 446 281 397 284 c 0
 329 288 324 285 268 229 c 0
 169 129 171 73 273 90 c 0
 395 110 515 206 483 257 c 0
EndSplineSet
Validated: 33
EndChar

StartChar: c
Encoding: 99 99 34
Width: 614
VWidth: 0
Flags: HW
LayerCount: 2
Back
Fore
SplineSet
274 392 m 0
 341 414 389 413 451 388 c 0
 511 364 537 329 519 300 c 0
 511 288 496 286 469 293 c 0
 448 299 398 306 358 310 c 0
 292 316 283 313 246 276 c 0
 191 221 188 135 238 102 c 0
 278 76 366 72 407 94 c 0
 438 111 478 101 478 76 c 0
 478 -1 314 -34 205 21 c 0
 131 58 117 91 121 217 c 0
 123 268 131 285 175 327 c 0
 204 354 249 384 274 392 c 0
EndSplineSet
Validated: 33
EndChar

StartChar: d
Encoding: 100 100 35
Width: 614
VWidth: 0
Flags: HW
LayerCount: 2
Back
Fore
SplineSet
482 789 m 0
 490 799 508 805 524 803 c 0
 558 799 558 807 520 505 c 0
 504 381 492 236 492 183 c 0
 492 100 487 82 461 59 c 0
 409 12 370 -1 283 -3 c 0
 152 -5 71 48 59 146 c 0
 51 212 87 282 150 325 c 0
 201 359 320 367 371 340 c 0
 411 318 420 338 430 490 c 0
 440 636 461 762 482 789 c 0
365 243 m 0
 343 271 200 265 173 235 c 0
 138 196 143 131 184 104 c 0
 222 79 330 75 371 97 c 0
 394 109 397 121 389 169 c 0
 384 200 373 233 365 243 c 0
EndSplineSet
Validated: 33
EndChar

StartChar: e
Encoding: 101 101 36
Width: 614
VWidth: 0
Flags: HW
LayerCount: 2
Back
Fore
SplineSet
299 472 m 0
 367 508 425 507 467 469 c 0
 501 438 499 355 464 310 c 0
 428 264 334 210 255 190 c 0
 180 171 170 137 228 99 c 0
 283 63 356 69 416 115 c 0
 454 144 474 151 489 141 c 0
 523 119 521 101 480 57 c 0
 434 8 344 -20 274 -7 c 0
 28 38 44 337 299 472 c 0
410 390 m 0
 410 416 372 414 313 383 c 0
 265 358 210 291 224 277 c 0
 247 254 410 353 410 390 c 0
EndSplineSet
Validated: 33
EndChar

StartChar: f
Encoding: 102 102 37
Width: 614
VWidth: 0
Flags: HW
LayerCount: 2
Back
Fore
SplineSet
309 789 m 0
 341 807 351 808 410 792 c 0
 475 774 555 705 589 638 c 0
 615 587 615 582 595 562 c 0
 568 535 533 552 507 605 c 0
 485 650 409 710 373 710 c 0
 328 710 287 598 287 472 c 2
 287 369 l 1
 340 369 l 2
 422 369 467 347 462 310 c 0
 458 283 449 280 374 276 c 2
 291 272 l 1
 282 72 l 2
 273 -137 262 -174 213 -155 c 0
 194 -148 190 -132 193 -76 c 0
 195 -38 196 56 194 132 c 2
 191 272 l 1
 125 264 l 2
 73 258 57 261 51 277 c 0
 38 311 72 343 131 351 c 2
 187 358 l 1
 196 479 l 2
 206 611 260 761 309 789 c 0
EndSplineSet
Validated: 33
EndChar

StartChar: g
Encoding: 103 103 38
Width: 614
VWidth: 0
Flags: HW
LayerCount: 2
Back
Fore
SplineSet
478 418 m 0
 508 454 554 432 555 384 c 0
 557 275 519 -137 495 -262 c 0
 480 -345 461 -442 456 -480 c 0
 436 -620 356 -691 213 -691 c 0
 153 -691 137 -683 92 -635 c 0
 18 -555 -13 -428 32 -391 c 0
 58 -369 101 -407 101 -451 c 0
 101 -498 141 -581 172 -597 c 0
 206 -615 307 -597 337 -566 c 0
 359 -544 447 -71 447 18 c 2
 447 74 l 1
 359 67 l 2
 277 60 267 63 222 103 c 0
 176 144 175 151 184 212 c 0
 191 257 213 295 252 338 c 0
 304 394 313 399 384 398 c 0
 432 397 468 405 478 418 c 0
443 296 m 0
 434 321 364 326 326 304 c 0
 296 287 261 205 271 177 c 0
 283 147 351 138 384 162 c 0
 421 187 455 265 443 296 c 0
EndSplineSet
Validated: 33
EndChar

StartChar: h
Encoding: 104 104 39
Width: 614
VWidth: 0
Flags: HW
LayerCount: 2
Back
Fore
SplineSet
154 809 m 0
 177 824 183 823 201 802 c 0
 213 788 213 718 199 532 c 0
 189 395 183 280 186 277 c 0
 189 274 220 287 258 308 c 0
 393 381 479 381 518 307 c 0
 542 262 543 37 519 -6 c 0
 499 -43 449 -48 448 -13 c 0
 448 0 445 69 444 140 c 0
 441 261 440 269 412 273 c 0
 379 278 280 231 234 189 c 0
 191 149 163 95 163 47 c 0
 163 -3 135 -41 102 -35 c 0
 65 -28 55 50 76 163 c 0
 86 214 100 355 108 479 c 0
 124 737 133 795 154 809 c 0
EndSplineSet
Validated: 33
EndChar

StartChar: i
Encoding: 105 105 40
Width: 614
VWidth: 0
Flags: HW
LayerCount: 2
Back
Fore
SplineSet
282 387 m 0
 308 416 319 416 339 392 c 0
 350 379 350 350 339 281 c 0
 331 229 321 146 317 95 c 0
 311 26 302 -1 284 -11 c 0
 241 -34 226 5 235 122 c 0
 248 295 260 363 282 387 c 0
285 704 m 0
 305 727 324 729 351 712 c 0
 382 693 363 650 322 645 c 0
 279 640 258 672 285 704 c 0
EndSplineSet
Validated: 33
EndChar

StartChar: j
Encoding: 106 106 41
Width: 614
VWidth: 0
Flags: HW
LayerCount: 2
Back
Fore
SplineSet
262 446 m 0
 268 455 285 460 301 458 c 0
 329 454 331 448 329 270 c 0
 325 -120 211 -382 45 -382 c 0
 -34 -382 -111 -314 -111 -245 c 0
 -111 -187 -53 -181 -42 -238 c 0
 -39 -253 -20 -275 0 -286 c 0
 74 -328 154 -259 195 -118 c 0
 219 -35 225 17 240 251 c 0
 246 349 256 437 262 446 c 0
287 712 m 0
 296 736 360 740 368 716 c 0
 380 681 362 651 329 651 c 0
 294 651 274 679 287 712 c 0
EndSplineSet
Validated: 33
EndChar

StartChar: k
Encoding: 107 107 42
Width: 614
VWidth: 0
Flags: HW
LayerCount: 2
Back
Fore
SplineSet
183 791 m 0
 198 815 243 809 258 780 c 0
 266 765 269 730 266 701 c 0
 263 673 255 592 251 523 c 2
 243 396 l 1
 287 419 l 2
 373 463 409 468 457 438 c 0
 560 375 521 191 391 125 c 0
 337 97 336 95 361 76 c 0
 378 63 412 58 455 61 c 0
 515 65 523 62 527 38 c 0
 531 8 470 -36 425 -36 c 0
 390 -36 270 21 247 48 c 0
 221 79 208 68 197 4 c 0
 177 -117 104 -92 107 34 c 0
 108 73 118 171 130 250 c 0
 142 329 156 479 162 584 c 0
 168 689 177 782 183 791 c 0
421 318 m 0
 421 349 415 357 389 357 c 0
 371 357 343 345 324 330 c 0
 286 300 221 186 234 173 c 0
 250 157 367 211 395 246 c 0
 410 265 421 296 421 318 c 0
EndSplineSet
Validated: 33
EndChar

StartChar: l
Encoding: 108 108 43
Width: 614
VWidth: 0
Flags: HW
LayerCount: 2
Back
Fore
SplineSet
191 785 m 0
 216 816 292 809 334 773 c 0
 386 729 393 627 355 429 c 0
 323 258 301 67 310 21 c 0
 317 -15 335 -18 387 9 c 0
 407 20 432 26 442 22 c 0
 466 13 455 -39 425 -61 c 0
 361 -108 283 -96 244 -33 c 0
 208 26 209 120 252 388 c 0
 271 509 285 629 283 655 c 0
 280 696 272 704 234 714 c 0
 184 727 166 755 191 785 c 0
EndSplineSet
Validated: 33
EndChar

StartChar: m
Encoding: 109 109 44
Width: 614
VWidth: 0
Flags: HW
LayerCount: 2
Back
Fore
SplineSet
386 365 m 0
 533 429 603 350 604 119 c 0
 605 -11 604 -17 575 -21 c 0
 542 -26 537 -14 524 112 c 0
 511 240 492 289 457 289 c 0
 405 289 378 245 361 125 c 0
 350 49 339 11 324 3 c 0
 284 -19 260 3 252 70 c 0
 236 203 225 241 203 245 c 0
 156 254 114 171 89 16 c 0
 80 -38 49 -61 18 -35 c 0
 3 -23 0 14 3 131 c 2
 7 282 l 1
 46 287 l 2
 68 290 104 303 128 318 c 0
 184 352 247 351 278 316 c 0
 303 289 304 289 324 318 c 0
 335 334 363 355 386 365 c 0
EndSplineSet
Validated: 33
EndChar

StartChar: n
Encoding: 110 110 45
Width: 614
VWidth: 0
Flags: HW
LayerCount: 2
Back
Fore
SplineSet
306 361 m 0
 354 387 374 390 406 372 c 0
 450 348 479 286 491 188 c 0
 505 78 493 12 457 5 c 0
 417 -3 405 23 399 133 c 0
 392 259 377 296 340 276 c 0
 297 253 273 206 242 81 c 0
 213 -37 192 -66 154 -35 c 0
 139 -23 136 16 139 138 c 2
 143 296 l 1
 189 297 l 2
 215 298 242 308 250 319 c 0
 258 331 283 349 306 361 c 0
EndSplineSet
Validated: 33
EndChar

StartChar: o
Encoding: 111 111 46
Width: 614
VWidth: 0
Flags: HW
LayerCount: 2
Back
Fore
SplineSet
238 355 m 0
 254 364 307 369 365 367 c 0
 459 364 468 361 506 318 c 0
 544 275 546 266 538 203 c 0
 519 56 435 -25 300 -29 c 0
 189 -33 82 46 82 131 c 0
 82 201 156 308 238 355 c 0
434 256 m 0
 414 281 319 281 262 256 c 0
 221 238 177 174 177 135 c 0
 177 97 238 58 298 58 c 0
 344 58 364 66 394 96 c 0
 437 139 459 226 434 256 c 0
EndSplineSet
Validated: 33
EndChar

StartChar: p
Encoding: 112 112 47
Width: 614
VWidth: 0
Flags: HW
LayerCount: 2
Back
Fore
SplineSet
210 352 m 0
 326 386 465 350 514 273 c 0
 554 210 544 95 495 53 c 0
 456 19 334 -21 270 -21 c 0
 225 -21 225 -19 206 -238 c 0
 183 -498 155 -599 110 -582 c 0
 94 -576 89 -560 94 -518 c 0
 97 -487 111 -365 124 -245 c 2
 148 -27 l 1
 119 -9 l 2
 80 17 83 54 125 73 c 0
 156 87 159 96 159 164 c 0
 159 206 153 251 145 265 c 0
 123 306 142 332 210 352 c 0
420 241 m 0
 394 264 330 277 287 269 c 0
 260 264 256 253 252 169 c 0
 249 108 252 73 262 69 c 0
 286 60 372 82 410 107 c 0
 451 134 457 209 420 241 c 0
EndSplineSet
Validated: 33
EndChar

StartChar: q
Encoding: 113 113 48
Width: 614
VWidth: 0
Flags: HW
LayerCount: 2
Back
Fore
SplineSet
283 437 m 0
 321 458 443 455 473 433 c 0
 496 416 499 398 496 232 c 0
 494 131 487 -5 481 -72 c 0
 475 -139 471 -196 474 -199 c 0
 477 -202 500 -188 526 -168 c 0
 580 -126 630 -120 630 -155 c 0
 630 -189 435 -352 407 -341 c 0
 382 -331 379 -251 398 -101 c 0
 404 -51 404 8 398 28 c 0
 392 48 387 58 386 48 c 0
 384 22 302 -23 256 -23 c 0
 202 -23 129 23 111 69 c 0
 92 118 105 221 138 285 c 0
 165 338 234 410 283 437 c 0
389 360 m 0
 380 374 372 373 324 352 c 0
 249 319 195 227 195 133 c 0
 195 95 202 83 229 70 c 0
 258 57 267 58 291 80 c 0
 306 94 328 122 338 141 c 0
 360 184 398 346 389 360 c 0
EndSplineSet
Validated: 33
EndChar

StartChar: r
Encoding: 114 114 49
Width: 614
VWidth: 0
Flags: HW
LayerCount: 2
Back
Fore
SplineSet
260 404 m 0
 292 431 316 439 368 439 c 0
 460 439 506 398 508 315 c 0
 509 262 506 255 479 251 c 0
 455 248 444 258 428 295 c 0
 403 355 372 367 328 334 c 0
 293 308 269 223 250 57 c 0
 241 -26 221 -57 186 -43 c 0
 159 -32 150 7 150 106 c 0
 150 151 144 223 137 267 c 0
 128 320 128 356 137 373 c 0
 151 400 197 406 211 383 c 0
 216 375 236 384 260 404 c 0
EndSplineSet
Validated: 33
EndChar

StartChar: s
Encoding: 115 115 50
Width: 614
VWidth: 0
Flags: HW
LayerCount: 2
Back
Fore
SplineSet
237 461 m 0
 290 484 444 484 489 462 c 0
 526 444 542 391 518 367 c 0
 509 358 486 360 447 376 c 0
 409 391 372 397 340 391 c 0
 220 371 215 354 318 324 c 0
 502 270 547 61 391 -10 c 0
 316 -44 243 -44 178 -10 c 0
 125 17 109 40 109 87 c 0
 109 123 178 122 201 85 c 0
 223 50 333 48 370 81 c 0
 430 135 386 208 275 239 c 0
 189 263 136 303 136 342 c 0
 136 378 188 440 237 461 c 0
EndSplineSet
Validated: 33
EndChar

StartChar: t
Encoding: 116 116 51
Width: 614
VWidth: 0
Flags: HW
LayerCount: 2
Back
Fore
SplineSet
238 461 m 0
 258 529 262 535 296 531 c 0
 329 527 333 522 333 466 c 2
 333 405 l 1
 415 405 l 2
 507 405 530 395 530 357 c 0
 530 321 489 302 431 311 c 0
 404 315 362 316 336 311 c 0
 290 303 290 302 274 208 c 0
 256 101 267 58 315 58 c 0
 352 58 431 107 449 141 c 0
 469 179 522 169 528 127 c 0
 537 61 414 -24 309 -24 c 0
 264 -24 240 -15 211 12 c 0
 174 47 172 50 179 168 c 2
 186 289 l 1
 148 289 l 2
 74 289 93 363 170 378 c 0
 212 386 218 393 238 461 c 0
EndSplineSet
Validated: 33
EndChar

StartChar: u
Encoding: 117 117 52
Width: 614
VWidth: 0
Flags: HW
LayerCount: 2
Back
Fore
SplineSet
136 350 m 0
 158 376 199 376 209 350 c 0
 213 340 212 289 208 237 c 0
 198 113 208 72 250 72 c 0
 267 72 298 84 317 99 c 0
 357 130 408 235 408 285 c 0
 408 333 432 371 462 371 c 0
 501 371 517 330 516 225 c 0
 516 175 517 111 519 85 c 0
 522 46 518 37 494 34 c 0
 476 32 457 40 445 57 c 0
 426 84 425 84 389 46 c 0
 369 25 328 -1 299 -10 c 0
 232 -32 177 -12 134 47 c 0
 108 83 105 102 111 209 c 0
 115 276 126 339 136 350 c 0
EndSplineSet
Validated: 33
EndChar

StartChar: v
Encoding: 118 118 53
Width: 614
VWidth: 0
Flags: HW
LayerCount: 2
Back
Fore
SplineSet
433 292 m 0
 456 348 472 371 489 371 c 0
 576 371 531 220 404 88 c 0
 327 8 277 -24 226 -24 c 0
 182 -24 177 -16 134 157 c 0
 95 312 95 343 137 343 c 0
 174 343 199 297 225 184 c 0
 239 124 254 85 265 85 c 0
 297 85 401 213 433 292 c 0
EndSplineSet
Validated: 33
EndChar

StartChar: w
Encoding: 119 119 54
Width: 614
VWidth: 0
Flags: HW
LayerCount: 2
Back
Fore
SplineSet
288 350 m 0
 299 374 313 385 332 382 c 0
 358 378 360 368 361 255 c 0
 363 97 363 99 401 99 c 0
 441 99 485 162 497 235 c 0
 509 310 528 343 556 343 c 0
 570 343 586 332 591 320 c 0
 607 279 583 26 560 -10 c 2
 540 -43 l 1
 508 -6 l 2
 491 14 474 25 469 17 c 0
 465 10 436 4 406 4 c 0
 363 4 343 12 313 44 c 2
 275 85 l 1
 246 46 l 2
 193 -27 99 -41 41 17 c 0
 19 39 14 63 14 145 c 0
 14 266 30 316 68 316 c 0
 100 316 101 313 96 187 c 0
 93 114 98 86 114 73 c 0
 132 58 140 61 170 91 c 0
 208 129 272 255 272 292 c 0
 272 304 279 331 288 350 c 0
EndSplineSet
Validated: 33
EndChar

StartChar: x
Encoding: 120 120 55
Width: 614
VWidth: 0
Flags: HW
LayerCount: 2
Back
Fore
SplineSet
37 342 m 0
 69 360 197 361 231 343 c 0
 264 326 288 282 298 222 c 2
 306 176 l 1
 364 260 l 2
 409 324 431 343 457 343 c 0
 506 343 510 310 470 231 c 0
 427 145 426 104 464 84 c 0
 488 71 497 74 523 98 c 0
 586 157 642 99 587 31 c 0
 550 -15 442 -16 381 29 c 2
 337 61 l 1
 260 -16 l 2
 203 -73 176 -91 158 -84 c 0
 129 -73 136 -5 172 34 c 0
 188 52 197 89 201 153 c 0
 206 241 204 248 173 263 c 0
 146 276 132 274 98 256 c 0
 75 244 46 238 34 243 c 0
 5 254 7 325 37 342 c 0
EndSplineSet
Validated: 33
EndChar

StartChar: y
Encoding: 121 121 56
Width: 614
VWidth: 0
Flags: HW
LayerCount: 2
Back
Fore
SplineSet
454 461 m 0
 476 483 512 481 533 457 c 0
 546 442 545 416 529 339 c 0
 518 284 498 188 485 124 c 0
 472 60 457 3 451 -5 c 0
 445 -12 436 -40 431 -66 c 0
 426 -92 392 -203 356 -312 c 0
 241 -660 205 -709 73 -702 c 0
 4 -698 -6 -694 -35 -651 c 0
 -57 -619 -65 -589 -62 -556 c 0
 -59 -515 -53 -508 -24 -508 c 0
 6 -508 10 -515 14 -560 c 0
 23 -666 134 -655 189 -542 c 0
 229 -460 353 -75 363 -1 c 2
 371 59 l 1
 325 30 l 2
 264 -8 189 -8 151 30 c 0
 123 58 122 70 131 181 c 0
 139 284 137 301 119 301 c 0
 106 301 98 314 98 336 c 0
 98 363 109 375 144 390 c 0
 233 428 252 397 232 256 c 0
 210 102 210 104 242 99 c 0
 285 93 361 189 403 302 c 0
 423 355 438 408 438 421 c 0
 438 435 445 452 454 461 c 0
EndSplineSet
Validated: 33
EndChar

StartChar: z
Encoding: 122 122 57
Width: 614
VWidth: 0
Flags: HW
LayerCount: 2
Back
Fore
SplineSet
170 430 m 0
 200 460 290 458 355 425 c 0
 432 386 427 349 327 210 c 0
 282 147 245 87 245 75 c 0
 245 57 262 55 363 61 c 0
 500 69 517 65 517 29 c 0
 517 -9 465 -23 336 -22 c 0
 169 -21 117 -10 111 29 c 0
 108 47 118 73 133 90 c 0
 148 106 181 156 209 202 c 0
 237 248 268 292 279 302 c 0
 317 334 302 357 245 357 c 0
 215 357 182 367 170 379 c 0
 144 405 144 404 170 430 c 0
EndSplineSet
Validated: 33
EndChar

StartChar: braceleft
Encoding: 123 123 58
Width: 614
VWidth: 0
Flags: HW
LayerCount: 2
Back
Fore
SplineSet
313 769 m 0
 366 796 408 791 465 750 c 0
 503 723 515 679 488 662 c 0
 480 657 452 667 425 683 c 0
 329 740 299 692 287 466 c 0
 283 380 271 297 262 281 c 0
 249 259 250 239 266 193 c 0
 282 146 284 118 272 51 c 0
 243 -113 257 -146 352 -146 c 0
 395 -146 407 -169 378 -198 c 0
 341 -235 222 -193 188 -130 c 0
 174 -105 183 62 199 88 c 0
 203 95 203 120 198 144 c 0
 191 179 182 191 147 201 c 0
 84 219 82 255 141 284 c 0
 198 311 200 317 207 501 c 0
 214 665 240 732 313 769 c 0
EndSplineSet
Validated: 33
EndChar

StartChar: bar
Encoding: 124 124 59
Width: 614
VWidth: 0
Flags: HW
LayerCount: 2
Back
Fore
SplineSet
310 774 m 0
 343 801 367 769 367 698 c 0
 367 630 315 -16 304 -89 c 0
 299 -120 291 -132 272 -132 c 0
 238 -132 229 -98 237 5 c 0
 240 53 253 241 266 425 c 0
 284 685 294 761 310 774 c 0
EndSplineSet
Validated: 33
EndChar

StartChar: braceright
Encoding: 125 125 60
Width: 614
VWidth: 0
Flags: HW
LayerCount: 2
Back
Fore
SplineSet
172 758 m 0
 183 769 214 778 243 778 c 0
 282 778 303 769 334 737 c 2
 374 696 l 1
 374 509 l 1
 374 323 l 1
 440 316 l 2
 520 308 553 272 510 240 c 0
 496 230 472 221 459 221 c 0
 413 221 393 162 381 2 c 0
 370 -142 368 -152 329 -191 c 0
 297 -223 275 -232 232 -232 c 0
 169 -232 136 -210 136 -170 c 0
 136 -147 143 -145 201 -153 c 0
 292 -165 301 -151 305 20 c 0
 307 97 316 177 326 197 c 0
 341 229 340 238 314 271 c 0
 286 307 284 317 293 473 c 0
 303 662 294 700 234 696 c 0
 214 695 190 694 182 695 c 0
 156 697 150 736 172 758 c 0
EndSplineSet
Validated: 33
EndChar

StartChar: asciitilde
Encoding: 126 126 61
Width: 614
VWidth: 0
Flags: HW
LayerCount: 2
Back
Fore
SplineSet
143 467 m 0
 208 494 250 469 305 377 c 0
 335 327 348 316 381 316 c 0
 412 316 430 329 459 371 c 0
 501 432 526 446 552 424 c 0
 566 412 564 399 543 357 c 0
 482 236 355 195 282 273 c 0
 263 293 237 330 225 354 c 0
 197 410 173 411 123 356 c 0
 80 309 41 309 41 357 c 0
 41 387 98 449 143 467 c 0
EndSplineSet
Validated: 33
EndChar

StartChar: exclam
Encoding: 33 33 62
Width: 614
VWidth: 0
Flags: HW
LayerCount: 2
Back
Fore
SplineSet
268 62 m 0
 286 80 355 72 363 50 c 0
 384 -6 315 -61 275 -21 c 0
 257 -3 253 47 268 62 c 0
255 693 m 0
 258 702 275 710 293 710 c 0
 311 710 330 703 336 693 c 0
 352 668 364 273 350 244 c 0
 325 193 242 242 262 295 c 0
 266 305 265 393 259 494 c 0
 253 595 252 684 255 693 c 0
EndSplineSet
Validated: 33
EndChar

StartChar: quotedbl
Encoding: 34 34 63
Width: 614
VWidth: 0
Flags: HW
LayerCount: 2
Back
Fore
SplineSet
342 706 m 0
 362 730 393 726 412 696 c 0
 422 681 418 651 400 594 c 0
 380 531 367 512 343 509 c 0
 324 506 310 514 304 528 c 0
 294 555 320 679 342 706 c 0
208 727 m 0
 227 739 227 739 250 730 c 0
 275 720 279 648 258 572 c 0
 247 531 237 520 211 520 c 0
 192 520 174 531 170 545 c 0
 159 579 188 714 208 727 c 0
EndSplineSet
Validated: 33
EndChar

StartChar: numbersign
Encoding: 35 35 64
Width: 614
VWidth: 0
Flags: HW
LayerCount: 2
Back
Fore
SplineSet
220 706 m 0
 240 730 281 728 291 702 c 0
 296 690 299 663 299 641 c 0
 299 612 306 602 324 602 c 0
 341 602 352 620 364 663 c 0
 377 713 386 724 413 724 c 0
 452 724 465 698 454 644 c 0
 448 613 451 601 474 589 c 0
 516 566 512 521 464 503 c 0
 423 488 408 452 408 369 c 0
 408 333 412 330 461 330 c 0
 506 330 557 304 557 282 c 0
 557 246 534 235 461 235 c 2
 381 235 l 1
 381 179 l 2
 381 111 360 72 326 72 c 0
 290 72 274 108 282 171 c 0
 289 221 288 224 257 219 c 0
 231 215 224 205 221 167 c 0
 213 56 184 23 137 70 c 0
 117 90 113 109 119 154 c 0
 125 199 122 215 105 224 c 0
 69 244 75 300 114 310 c 0
 151 319 156 331 170 428 c 0
 178 486 176 493 152 493 c 0
 137 493 117 503 107 515 c 0
 83 545 108 579 158 588 c 0
 192 594 198 601 202 642 c 0
 205 668 213 697 220 706 c 0
319 429 m 0
 326 493 324 507 307 507 c 0
 279 507 275 496 261 406 c 0
 254 358 253 326 261 321 c 0
 286 306 310 352 319 429 c 0
EndSplineSet
Validated: 33
EndChar

StartChar: dollar
Encoding: 36 36 65
Width: 614
VWidth: 0
Flags: HW
LayerCount: 2
Back
Fore
SplineSet
317 797 m 0
 357 813 374 798 381 738 c 0
 388 680 389 678 399 717 c 0
 415 781 430 799 464 799 c 0
 494 799 496 793 496 728 c 0
 496 668 501 654 530 634 c 0
 575 603 584 588 584 550 c 0
 584 528 576 520 552 520 c 0
 534 520 511 530 502 542 c 0
 476 574 464 549 444 417 c 0
 426 299 426 295 456 262 c 0
 504 208 519 167 510 118 c 0
 501 72 435 2 374 -26 c 0
 355 -34 339 -57 334 -81 c 0
 316 -169 258 -182 258 -97 c 0
 258 -55 255 -49 228 -53 c 0
 209 -56 196 -68 193 -87 c 0
 187 -125 155 -151 126 -140 c 0
 109 -134 107 -121 113 -84 c 0
 121 -38 119 -35 67 -14 c 0
 25 3 13 14 16 36 c 0
 19 60 30 65 82 65 c 2
 143 65 l 1
 173 186 l 1
 204 308 l 1
 175 339 l 2
 150 366 147 382 152 474 c 2
 158 579 l 1
 220 634 l 2
 265 674 284 704 291 740 c 0
 296 767 308 793 317 797 c 0
366 530 m 0
 372 561 372 588 366 588 c 0
 360 588 351 566 347 537 c 0
 343 509 334 461 326 428 c 0
 309 356 309 343 325 343 c 0
 332 343 343 373 347 408 c 0
 351 443 360 498 366 530 c 0
313 220 m 0
 313 269 287 250 272 190 c 0
 264 159 252 113 246 89 c 0
 234 43 246 19 268 47 c 0
 284 67 313 179 313 220 c 0
421 150 m 0
 421 160 416 167 408 167 c 0
 401 167 394 149 394 129 c 0
 394 100 398 96 408 112 c 0
 415 123 421 141 421 150 c 0
EndSplineSet
Validated: 33
EndChar

StartChar: percent
Encoding: 37 37 66
Width: 614
VWidth: 0
Flags: HW
LayerCount: 2
Back
Fore
SplineSet
432 220 m 0
 477 254 477 254 514 228 c 0
 536 212 544 193 544 152 c 0
 544 46 483 -37 421 -17 c 0
 327 13 333 146 432 220 c 0
470 109 m 0
 476 131 472 140 458 140 c 0
 437 140 421 112 421 77 c 0
 421 58 462 49 462 68 c 0
 462 74 466 93 470 109 c 0
415 505 m 0
 473 568 508 572 514 517 c 0
 517 491 502 464 456 412 c 0
 422 373 366 287 332 219 c 0
 298 151 247 66 217 28 c 0
 187 -10 163 -45 163 -52 c 0
 163 -72 125 -66 117 -44 c 0
 107 -17 126 30 167 80 c 0
 201 121 331 357 324 364 c 0
 322 366 308 370 293 373 c 0
 273 377 265 367 257 330 c 0
 239 242 147 206 80 260 c 0
 52 283 48 297 50 362 c 0
 54 469 78 512 135 517 c 0
 166 520 194 512 221 492 c 0
 243 476 283 460 312 456 c 0
 358 450 368 455 415 505 c 0
176 418 m 0
 149 451 122 441 120 398 c 0
 119 375 118 350 117 340 c 0
 116 330 131 323 150 323 c 0
 177 323 185 331 188 361 c 0
 190 381 184 408 176 418 c 0
EndSplineSet
Validated: 33
EndChar

StartChar: ampersand
Encoding: 38 38 67
Width: 614
VWidth: 0
Flags: HW
LayerCount: 2
Back
Fore
SplineSet
449 744 m 0
 459 770 470 779 493 776 c 0
 536 770 539 703 503 560 c 0
 460 391 443 357 402 357 c 0
 375 357 362 368 348 402 c 0
 311 492 177 500 177 413 c 0
 177 361 191 351 292 343 c 0
 365 337 375 333 379 304 c 0
 385 262 350 235 292 235 c 0
 252 235 245 227 205 152 c 0
 181 107 165 66 169 62 c 0
 174 57 194 54 217 55 c 0
 263 56 349 118 395 182 c 0
 427 227 469 232 490 194 c 0
 505 167 504 167 431 -143 c 0
 395 -295 369 -339 333 -309 c 0
 310 -290 307 -252 325 -218 c 0
 340 -191 381 -24 381 9 c 0
 381 27 368 24 310 -5 c 0
 253 -34 227 -39 178 -32 c 0
 58 -16 42 39 114 182 c 2
 159 271 l 1
 120 314 l 2
 91 346 82 370 82 411 c 0
 82 484 99 514 163 547 c 0
 231 582 254 582 329 544 c 2
 391 512 l 1
 413 588 l 2
 425 630 435 675 435 687 c 0
 435 699 442 725 449 744 c 0
EndSplineSet
Validated: 33
EndChar

StartChar: quotesingle
Encoding: 39 39 68
Width: 614
VWidth: 0
Flags: HW
LayerCount: 2
Fore
SplineSet
290 732 m 0
 310 756 340 751 359 721 c 0
 369 706 365 676 347 619 c 0
 327 556 315 538 291 535 c 0
 272 532 257 540 251 554 c 0
 241 581 268 705 290 732 c 0
EndSplineSet
Validated: 33
EndChar

StartChar: parenleft
Encoding: 40 40 69
Width: 614
VWidth: 0
Flags: HW
LayerCount: 2
Back
Fore
SplineSet
286 641 m 4
 336 691 348 697 373 684 c 4
 411 664 408 649 358 592 c 4
 289 513 261 436 260 319 c 4
 259 202 275 160 351 87 c 4
 401 39 414 -4 381 -17 c 4
 354 -28 302 3 254 59 c 4
 183 142 169 183 169 309 c 4
 169 459 205 560 286 641 c 4
EndSplineSet
Validated: 33
EndChar

StartChar: parenright
Encoding: 41 41 70
Width: 614
VWidth: 0
Flags: HW
LayerCount: 2
Back
Fore
SplineSet
249 647 m 0
 279 659 286 656 340 607 c 0
 409 545 444 469 461 349 c 0
 476 243 460 155 406 58 c 0
 375 2 304 -51 261 -51 c 0
 218 -51 223 -18 276 40 c 0
 338 109 367 184 369 281 c 0
 371 394 344 475 283 536 c 0
 231 588 217 634 249 647 c 0
EndSplineSet
Validated: 33
EndChar

StartChar: sterling
Encoding: 163 163 71
Width: 614
VWidth: 0
Flags: HW
LayerCount: 2
Back
Fore
SplineSet
262 724 m 0
 314 756 365 759 401 732 c 0
 437 705 414 667 356 655 c 0
 332 650 303 639 292 629 c 0
 263 605 242 523 247 459 c 0
 252 405 252 405 310 405 c 0
 413 405 425 325 325 304 c 0
 299 299 280 290 282 285 c 0
 284 280 285 239 285 196 c 2
 285 116 l 1
 364 67 l 2
 407 39 449 17 458 17 c 0
 484 17 489 -21 466 -44 c 0
 440 -70 394 -62 337 -20 c 0
 306 3 278 10 220 10 c 0
 153 10 143 14 139 38 c 0
 137 53 147 78 162 91 c 0
 184 111 190 133 190 196 c 0
 190 275 190 275 150 275 c 0
 113 275 109 280 109 316 c 0
 109 342 118 358 133 363 c 0
 153 369 157 388 157 475 c 0
 158 599 192 681 262 724 c 0
EndSplineSet
Validated: 33
EndChar

StartChar: yen
Encoding: 165 165 72
Width: 614
VWidth: 0
Flags: HW
LayerCount: 2
Back
Fore
SplineSet
154 727 m 0
 186 738 205 720 247 637 c 0
 285 562 291 556 304 581 c 0
 312 596 346 635 377 668 c 0
 418 710 443 725 465 722 c 0
 513 715 513 665 464 630 c 0
 423 601 340 469 340 433 c 0
 340 421 355 411 377 409 c 0
 407 406 415 398 415 371 c 0
 415 345 404 335 370 326 c 0
 335 317 326 309 326 282 c 0
 326 256 334 248 359 248 c 0
 412 248 435 234 435 201 c 0
 435 168 412 153 360 153 c 0
 330 153 329 148 324 37 c 0
 321 -46 314 -83 299 -92 c 0
 265 -113 246 -79 236 19 c 0
 227 109 226 113 192 113 c 0
 108 113 97 176 177 202 c 0
 214 214 225 225 229 254 c 0
 234 290 232 291 180 283 c 0
 139 276 122 279 109 295 c 0
 95 312 95 321 115 343 c 0
 128 357 157 373 177 378 c 0
 247 394 248 411 190 541 c 0
 134 666 124 717 154 727 c 0
EndSplineSet
Validated: 33
EndChar

StartChar: brokenbar
Encoding: 166 166 73
Width: 614
VWidth: 0
Flags: HW
LayerCount: 2
Back
Fore
SplineSet
247 382 m 0
 265 400 265 400 291 390 c 0
 309 383 313 353 313 193 c 2
 313 4 l 1
 272 4 l 1
 231 4 l 1
 231 184 l 2
 231 306 236 371 247 382 c 0
272 751 m 0
 281 757 299 759 310 755 c 0
 327 749 329 724 321 610 c 0
 310 456 290 414 248 456 c 0
 228 477 227 493 240 610 c 0
 249 689 261 744 272 751 c 0
EndSplineSet
Validated: 33
EndChar

StartChar: section
Encoding: 167 167 74
Width: 614
VWidth: 0
Flags: HW
LayerCount: 2
Back
Fore
SplineSet
313 715 m 0
 324 719 355 721 381 720 c 0
 419 718 429 711 432 687 c 0
 435 662 427 655 374 642 c 0
 303 624 258 577 258 520 c 0
 258 492 275 472 329 431 c 0
 427 358 462 302 462 220 c 0
 462 163 456 150 417 118 c 2
 372 82 l 1
 400 27 l 2
 433 -40 444 -178 422 -245 c 0
 390 -340 280 -389 196 -344 c 0
 147 -318 127 -285 148 -264 c 0
 157 -255 178 -259 209 -276 c 0
 296 -323 366 -269 366 -153 c 0
 366 -71 343 -3 303 33 c 0
 194 130 190 136 190 194 c 0
 190 254 205 292 247 338 c 0
 273 367 274 366 226 414 c 0
 172 468 162 532 196 599 c 0
 217 640 281 703 313 715 c 0
364 286 m 0
 342 308 330 306 299 275 c 0
 266 242 262 173 292 162 c 0
 303 158 328 160 347 167 c 0
 374 177 381 190 381 225 c 0
 381 249 373 277 364 286 c 0
EndSplineSet
Validated: 33
EndChar

StartChar: copyright
Encoding: 169 169 75
Width: 614
VWidth: 0
Flags: HW
LayerCount: 2
Back
Fore
SplineSet
214 346 m 0
 242 375 262 384 300 384 c 0
 372 384 421 363 421 331 c 0
 421 293 398 284 352 303 c 0
 276 335 207 269 266 220 c 0
 283 206 294 209 328 234 c 0
 371 266 408 264 408 229 c 0
 408 196 327 140 281 140 c 0
 180 140 139 268 214 346 c 0
190 546 m 0
 250 570 394 564 458 535 c 0
 537 499 598 403 598 315 c 0
 598 216 573 119 532 62 c 0
 501 19 478 4 411 -16 c 0
 260 -62 101 -15 54 88 c 0
 -17 246 56 493 190 546 c 0
449 455 m 0
 407 486 292 496 235 474 c 0
 169 449 137 413 115 338 c 0
 59 150 127 40 299 38 c 0
 434 36 495 92 519 237 c 0
 532 316 531 334 508 379 c 0
 494 408 468 441 449 455 c 0
EndSplineSet
Validated: 33
EndChar

StartChar: registered
Encoding: 174 174 76
Width: 614
VWidth: 0
Flags: HW
LayerCount: 2
Back
Fore
SplineSet
241 367 m 0
 254 376 286 384 315 384 c 0
 412 384 451 304 392 229 c 0
 370 202 367 189 378 178 c 0
 399 157 399 99 377 99 c 0
 367 99 346 114 329 133 c 0
 296 171 266 176 254 146 c 0
 250 135 233 126 218 126 c 0
 194 126 191 134 191 183 c 0
 192 267 213 347 241 367 c 0
346 304 m 0
 342 311 325 316 307 316 c 0
 284 316 273 307 269 284 c 0
 263 249 284 230 318 243 c 0
 341 252 357 286 346 304 c 0
177 515 m 0
 196 524 250 531 299 532 c 0
 406 533 474 500 539 414 c 0
 602 331 620 262 599 183 c 0
 551 2 448 -54 251 -6 c 0
 108 29 36 96 11 212 c 0
 -4 284 -4 292 33 369 c 0
 70 448 103 481 177 515 c 0
449 418 m 0
 413 452 394 459 315 463 c 0
 198 469 142 441 98 354 c 0
 14 191 140 44 363 44 c 0
 427 44 441 50 475 87 c 0
 511 127 544 205 544 254 c 0
 544 290 495 375 449 418 c 0
EndSplineSet
Validated: 33
EndChar

StartChar: degree
Encoding: 176 176 77
Width: 614
VWidth: 0
Flags: HW
LayerCount: 2
Back
Fore
SplineSet
251 761 m 0
 277 784 297 789 324 783 c 0
 386 768 408 739 408 670 c 0
 408 553 310 511 231 595 c 0
 190 638 199 716 251 761 c 0
326 670 m 0
 326 697 312 706 295 689 c 0
 278 672 286 642 306 642 c 0
 317 642 326 655 326 670 c 0
EndSplineSet
Validated: 33
EndChar

StartChar: quotedblleft
Encoding: 256 8220 78
Width: 614
VWidth: 0
Flags: HW
LayerCount: 2
Fore
SplineSet
342 706 m 0
 362 730 393 726 412 696 c 0
 422 681 418 651 400 594 c 0
 380 531 367 512 343 509 c 0
 324 506 310 514 304 528 c 0
 294 555 320 679 342 706 c 0
208 727 m 0
 227 739 227 739 250 730 c 0
 275 720 279 648 258 572 c 0
 247 531 237 520 211 520 c 0
 192 520 174 531 170 545 c 0
 159 579 188 714 208 727 c 0
EndSplineSet
Validated: 33
EndChar

StartChar: quotedblright
Encoding: 257 8221 79
Width: 614
VWidth: 0
Flags: HW
LayerCount: 2
Fore
SplineSet
342 706 m 0
 362 730 393 726 412 696 c 0
 422 681 418 651 400 594 c 0
 380 531 367 512 343 509 c 0
 324 506 310 514 304 528 c 0
 294 555 320 679 342 706 c 0
208 727 m 0
 227 739 227 739 250 730 c 0
 275 720 279 648 258 572 c 0
 247 531 237 520 211 520 c 0
 192 520 174 531 170 545 c 0
 159 579 188 714 208 727 c 0
EndSplineSet
Validated: 33
EndChar

StartChar: quoteleft
Encoding: 258 8216 80
Width: 614
VWidth: 0
Flags: HW
LayerCount: 2
Fore
SplineSet
290 732 m 0
 310 756 340 751 359 721 c 0
 369 706 365 676 347 619 c 0
 327 556 315 538 291 535 c 0
 272 532 257 540 251 554 c 0
 241 581 268 705 290 732 c 0
EndSplineSet
Validated: 33
EndChar

StartChar: quoteright
Encoding: 259 8217 81
Width: 614
VWidth: 0
Flags: HW
LayerCount: 2
Fore
SplineSet
290 732 m 0
 310 756 340 751 359 721 c 0
 369 706 365 676 347 619 c 0
 327 556 315 538 291 535 c 0
 272 532 257 540 251 554 c 0
 241 581 268 705 290 732 c 0
EndSplineSet
Validated: 33
EndChar

StartChar: NameMe.10
Encoding: 260 8482 82
Width: 614
VWidth: 0
Flags: HW
LayerCount: 2
Back
Fore
SplineSet
315 734 m 0
 336 759 363 755 385 724 c 0
 402 700 406 699 421 717 c 0
 466 770 511 725 527 611 c 0
 533 572 529 559 510 552 c 0
 496 547 478 552 466 564 c 0
 449 581 439 583 419 570 c 0
 400 558 389 558 370 570 c 0
 356 579 336 580 325 574 c 0
 314 568 295 568 285 575 c 0
 269 585 269 597 283 651 c 0
 292 686 307 724 315 734 c 0
123 744 m 0
 151 777 263 765 278 727 c 0
 282 716 276 695 265 683 c 0
 254 670 245 643 245 623 c 0
 245 603 235 583 224 579 c 0
 195 568 163 599 163 637 c 0
 163 655 150 683 135 698 c 0
 113 720 111 729 123 744 c 0
EndSplineSet
Validated: 33
EndChar

StartChar: NameMe.11
Encoding: 261 8594 83
Width: 614
VWidth: 0
Flags: HW
LayerCount: 2
Back
Fore
SplineSet
334 458 m 0
 351 502 408 478 471 401 c 0
 503 362 530 321 530 312 c 0
 530 303 507 271 481 242 c 0
 455 213 424 171 413 150 c 0
 398 120 384 112 356 115 c 0
 308 121 302 159 339 209 c 0
 354 229 367 249 367 252 c 0
 367 255 301 256 221 256 c 0
 80 255 74 256 70 286 c 0
 65 324 110 343 208 343 c 0
 247 343 301 347 329 352 c 2
 379 360 l 1
 352 396 l 2
 336 418 329 444 334 458 c 0
EndSplineSet
Validated: 33
EndChar

StartChar: NameMe.12
Encoding: 262 10132 84
Width: 614
VWidth: 0
Flags: HW
LayerCount: 2
Fore
SplineSet
334 458 m 0
 351 502 408 478 471 401 c 0
 503 362 530 321 530 312 c 0
 530 303 507 271 481 242 c 0
 455 213 424 171 413 150 c 0
 398 120 384 112 356 115 c 0
 308 121 302 159 339 209 c 0
 354 229 367 249 367 252 c 0
 367 255 301 256 221 256 c 0
 80 255 74 256 70 286 c 0
 65 324 110 343 208 343 c 0
 247 343 301 347 329 352 c 2
 379 360 l 1
 352 396 l 2
 336 418 329 444 334 458 c 0
EndSplineSet
Validated: 33
EndChar

StartChar: comma
Encoding: 44 44 86
Width: 614
VWidth: 0
Flags: HW
LayerCount: 2
Back
Fore
SplineSet
293 101 m 0
 311 155 321 167 348 167 c 0
 389 167 419 106 395 72 c 0
 371 38 342 -27 321 -92 c 0
 307 -135 293 -154 273 -157 c 0
 235 -163 225 -132 244 -74 c 0
 253 -48 262 -13 265 4 c 0
 268 21 281 64 293 101 c 0
EndSplineSet
Validated: 33
EndChar

StartChar: hyphen
Encoding: 45 45 87
Width: 614
VWidth: 0
Flags: HMW
HStem: 256 77
LayerCount: 2
Back
Fore
SplineSet
530 336 m 0
 555 360 613 325 613 286 c 0
 613 250 543 237 306 228 c 0
 79 219 2 231 2 274 c 0
 2 288 9 304 17 309 c 0
 25 314 142 320 278 324 c 0
 414 328 527 333 530 336 c 0
EndSplineSet
Validated: 33
EndChar

StartChar: period
Encoding: 46 46 88
Width: 614
VWidth: 0
Flags: HW
LayerCount: 2
Back
Fore
SplineSet
258 79 m 0
 267 90 285 99 299 99 c 0
 333 99 357 65 347 32 c 0
 334 -7 264 -7 251 32 c 0
 246 47 249 68 258 79 c 0
EndSplineSet
Validated: 33
EndChar

StartChar: slash
Encoding: 47 47 89
Width: 614
VWidth: 0
Flags: HW
LayerCount: 2
Back
Fore
SplineSet
306 455 m 0
 408 663 424 688 452 684 c 0
 504 677 494 628 406 453 c 0
 359 361 299 232 271 164 c 0
 214 28 179 -20 137 -20 c 0
 97 -20 88 15 118 58 c 0
 132 79 155 124 168 158 c 0
 181 193 243 326 306 455 c 0
EndSplineSet
Validated: 33
EndChar

StartChar: zero
Encoding: 48 48 90
Width: 614
VWidth: 0
Flags: HW
LayerCount: 2
Back
Fore
SplineSet
275 544 m 0
 335 563 403 565 435 548 c 0
 449 540 482 495 509 447 c 0
 561 354 572 266 543 161 c 0
 523 90 444 7 381 -10 c 0
 323 -26 188 -6 140 25 c 0
 61 76 30 254 80 364 c 0
 110 429 212 524 275 544 c 0
385 435 m 0
 361 452 339 465 337 464 c 0
 335 463 321 460 306 456 c 0
 216 433 150 338 150 231 c 0
 150 124 186 83 291 74 c 0
 359 68 372 71 402 99 c 0
 450 144 481 259 463 326 c 0
 446 389 440 397 385 435 c 0
EndSplineSet
Validated: 33
EndChar

StartChar: one
Encoding: 49 49 91
Width: 614
VWidth: 0
Flags: HW
LayerCount: 2
Back
Fore
SplineSet
294 509 m 0
 298 516 315 519 331 517 c 0
 359 513 360 508 358 357 c 0
 356 163 333 8 302 -8 c 0
 287 -16 270 -15 254 -3 c 0
 232 13 231 23 243 94 c 0
 250 137 264 247 272 335 c 0
 280 423 290 502 294 509 c 0
EndSplineSet
Validated: 33
EndChar

StartChar: two
Encoding: 50 50 92
Width: 614
VWidth: 0
Flags: HW
LayerCount: 2
Back
Fore
SplineSet
196 519 m 0
 283 562 441 528 472 460 c 0
 494 412 507 308 497 256 c 0
 492 230 473 188 455 161 c 0
 419 108 421 104 496 96 c 0
 526 93 538 84 541 61 c 0
 546 22 502 4 397 3 c 0
 355 3 303 -6 285 -17 c 0
 239 -44 144 -44 122 -17 c 0
 93 17 122 48 205 69 c 0
 288 90 311 107 367 191 c 0
 408 252 416 300 400 382 c 0
 383 466 230 467 181 384 c 0
 143 320 82 313 82 372 c 0
 82 416 140 491 196 519 c 0
EndSplineSet
Validated: 33
EndChar

StartChar: three
Encoding: 51 51 93
Width: 614
VWidth: 0
Flags: HW
LayerCount: 2
Back
Fore
SplineSet
292 610 m 0
 341 632 420 634 469 615 c 0
 519 596 577 469 566 402 c 0
 562 376 548 343 536 330 c 0
 518 310 516 300 528 278 c 0
 561 217 539 109 478 40 c 0
 411 -37 241 -67 150 -18 c 0
 124 -4 93 13 82 18 c 0
 55 31 55 72 84 90 c 0
 103 102 121 99 163 75 c 0
 219 43 300 35 357 57 c 0
 402 74 451 155 446 203 c 0
 442 240 439 242 360 243 c 0
 247 245 245 245 245 282 c 0
 245 321 279 343 337 343 c 0
 451 343 499 401 457 488 c 0
 437 529 430 534 382 534 c 0
 345 534 316 523 287 499 c 0
 241 460 200 459 193 497 c 0
 187 528 238 586 292 610 c 0
EndSplineSet
Validated: 33
EndChar

StartChar: four
Encoding: 52 52 94
Width: 614
VWidth: 0
Flags: HW
LayerCount: 2
Back
Fore
SplineSet
95 629 m 0
 121 645 149 629 158 592 c 0
 162 574 158 511 149 451 c 0
 140 391 135 339 139 335 c 0
 143 331 170 335 199 342 c 0
 228 349 267 358 286 362 c 0
 317 368 322 379 337 458 c 0
 362 590 374 615 413 615 c 0
 459 615 466 587 442 496 c 0
 410 372 409 372 512 368 c 0
 600 364 605 362 605 330 c 0
 605 298 600 296 503 284 c 0
 447 277 397 265 392 257 c 0
 387 249 380 206 375 161 c 0
 361 31 354 4 324 -12 c 0
 304 -23 291 -21 275 -6 c 0
 256 12 256 28 274 135 c 0
 297 275 298 275 185 242 c 0
 95 216 42 215 33 239 c 0
 21 270 76 617 95 629 c 0
EndSplineSet
Validated: 33
EndChar

StartChar: five
Encoding: 53 53 95
Width: 614
VWidth: 0
Flags: HW
LayerCount: 2
Back
Fore
SplineSet
159 651 m 0
 175 667 215 670 351 667 c 0
 509 663 524 661 528 637 c 0
 537 591 493 575 364 575 c 0
 299 575 243 570 240 564 c 0
 237 558 229 525 224 490 c 2
 215 425 l 1
 284 425 l 2
 372 425 424 398 476 327 c 0
 509 281 517 258 517 194 c 0
 517 60 447 4 283 4 c 0
 199 4 176 9 133 38 c 0
 94 65 82 82 82 113 c 0
 82 146 87 153 111 153 c 0
 127 153 154 141 170 126 c 0
 207 91 313 76 366 98 c 0
 465 139 428 312 315 334 c 0
 273 342 220 325 198 295 c 0
 189 283 168 275 149 278 c 0
 118 282 116 287 117 350 c 0
 119 483 140 632 159 651 c 0
EndSplineSet
Validated: 33
EndChar

StartChar: six
Encoding: 54 54 96
Width: 614
VWidth: 0
Flags: HW
LayerCount: 2
Back
Fore
SplineSet
353 614 m 0
 445 650 546 605 521 539 c 0
 514 521 501 519 449 526 c 0
 386 534 384 533 321 466 c 0
 287 429 258 390 258 380 c 0
 258 368 280 359 319 353 c 0
 454 334 512 267 496 150 c 0
 478 17 376 -46 249 -4 c 0
 146 31 118 68 111 182 c 0
 107 249 112 284 126 306 c 0
 137 323 156 368 168 406 c 0
 192 479 289 589 353 614 c 0
389 234 m 0
 358 260 242 269 221 247 c 0
 212 237 204 203 204 172 c 0
 204 126 210 111 238 93 c 0
 280 66 359 65 381 92 c 0
 409 126 414 213 389 234 c 0
EndSplineSet
Validated: 33
EndChar

StartChar: seven
Encoding: 55 55 97
Width: 614
VWidth: 0
Flags: HW
LayerCount: 2
Back
Fore
SplineSet
319 534 m 0
 357 548 412 559 442 557 c 0
 492 554 496 551 500 512 c 0
 502 488 496 445 485 414 c 2
 466 358 l 1
 508 354 l 2
 542 351 552 344 555 314 c 0
 559 281 553 276 500 262 c 0
 467 254 435 245 427 242 c 0
 419 239 396 189 375 131 c 0
 332 9 319 -10 283 -10 c 0
 243 -10 239 23 270 114 c 0
 286 160 296 201 292 205 c 0
 288 209 260 201 227 189 c 0
 156 162 143 162 118 187 c 0
 89 216 106 261 148 270 c 0
 253 293 340 321 350 334 c 0
 370 361 398 439 390 447 c 0
 385 452 353 445 318 433 c 0
 236 405 91 405 69 432 c 0
 58 446 57 459 68 479 c 0
 81 502 96 507 167 508 c 0
 213 509 282 520 319 534 c 0
EndSplineSet
Validated: 33
EndChar

StartChar: eight
Encoding: 56 56 98
Width: 614
VWidth: 0
Flags: HW
LayerCount: 2
Back
Fore
SplineSet
245 549 m 0
 282 589 291 592 347 585 c 0
 381 581 432 562 462 542 c 0
 508 512 517 499 517 459 c 0
 517 410 490 342 454 301 c 0
 439 284 438 270 450 236 c 0
 467 189 460 95 435 43 c 0
 410 -10 344 -53 279 -61 c 0
 225 -67 215 -64 169 -18 c 0
 121 30 119 35 128 103 c 0
 139 186 158 219 231 278 c 2
 285 322 l 1
 245 364 l 2
 184 427 184 484 245 549 c 0
390 466 m 0
 373 466 347 469 329 474 c 0
 281 487 289 437 341 399 c 0
 383 368 385 367 402 391 c 0
 431 430 425 466 390 466 c 0
361 186 m 0
 350 244 329 247 275 196 c 0
 192 119 207 -6 295 25 c 0
 343 42 374 118 361 186 c 0
EndSplineSet
Validated: 33
EndChar

StartChar: nine
Encoding: 57 57 99
Width: 614
VWidth: 0
Flags: HW
LayerCount: 2
Back
Fore
SplineSet
234 572 m 0
 271 595 297 600 385 597 c 0
 460 595 496 588 504 575 c 0
 525 541 518 480 483 407 c 0
 439 315 406 180 406 91 c 0
 406 38 400 14 380 -4 c 0
 355 -27 352 -26 326 -3 c 0
 294 26 293 74 320 198 c 2
 337 275 l 1
 298 275 l 2
 242 275 169 308 151 341 c 0
 115 408 157 524 234 572 c 0
371 499 m 0
 332 514 297 506 264 473 c 0
 214 423 224 379 287 374 c 0
 340 370 362 387 380 451 c 0
 389 482 387 493 371 499 c 0
EndSplineSet
Validated: 33
EndChar

StartChar: colon
Encoding: 58 58 100
Width: 614
VWidth: 0
Flags: HW
LayerCount: 2
Back
Fore
SplineSet
264 188 m 0
 270 213 282 221 313 221 c 0
 360 221 378 179 357 116 c 0
 347 86 335 78 304 78 c 0
 270 78 264 84 260 117 c 0
 257 139 259 170 264 188 c 0
269 444 m 0
 305 480 405 402 386 353 c 0
 375 325 351 324 299 351 c 0
 261 371 245 420 269 444 c 0
EndSplineSet
Validated: 33
EndChar

StartChar: equal
Encoding: 61 61 101
Width: 614
VWidth: 0
Flags: HW
LayerCount: 2
Back
Fore
SplineSet
85 184 m 0
 94 188 129 189 163 186 c 0
 197 183 288 178 367 173 c 0
 514 164 544 154 544 111 c 0
 544 73 503 57 440 71 c 0
 411 77 324 87 245 92 c 0
 97 102 68 112 68 153 c 0
 68 167 76 180 85 184 c 0
65 410 m 0
 78 417 179 424 292 424 c 0
 509 425 552 414 542 362 c 0
 538 338 524 336 332 335 c 0
 219 334 121 330 114 326 c 0
 107 322 88 324 72 330 c 0
 35 344 31 390 65 410 c 0
EndSplineSet
Validated: 33
EndChar

StartChar: question
Encoding: 63 63 102
Width: 614
VWidth: 0
Flags: HW
LayerCount: 2
Back
Fore
SplineSet
245 -49 m 0
 245 -33 254 -24 270 -24 c 0
 300 -24 316 -55 296 -75 c 0
 276 -95 245 -79 245 -49 c 0
232 741 m 0
 346 774 394 770 468 722 c 0
 503 699 545 660 559 637 c 0
 588 591 593 494 570 451 c 0
 553 419 462 371 419 371 c 0
 371 371 358 355 342 278 c 0
 322 183 305 153 272 153 c 0
 233 153 227 182 245 285 c 0
 270 428 280 441 374 458 c 0
 479 477 489 485 489 539 c 0
 489 595 413 670 356 670 c 0
 258 670 184 626 98 516 c 0
 72 483 41 504 41 553 c 0
 41 618 138 714 232 741 c 0
EndSplineSet
Validated: 33
EndChar

StartChar: at
Encoding: 64 64 103
Width: 614
VWidth: 0
Flags: HW
LayerCount: 2
Back
Fore
SplineSet
209 704 m 0
 277 745 321 746 398 710 c 0
 489 668 528 618 546 524 c 0
 576 365 539 297 396 249 c 0
 251 201 177 234 197 341 c 0
 226 495 352 542 397 417 c 0
 424 343 457 361 454 449 c 0
 451 560 440 585 381 615 c 0
 310 651 283 650 234 609 c 0
 153 541 118 255 176 141 c 0
 216 62 288 11 344 22 c 0
 416 36 472 78 481 125 c 0
 489 163 494 168 527 164 c 0
 559 161 564 153 568 116 c 0
 574 51 554 25 462 -22 c 0
 356 -76 290 -78 213 -27 c 0
 143 19 131 33 86 119 c 0
 52 183 50 195 58 330 c 0
 70 550 108 644 209 704 c 0
326 335 m 0
 326 364 303 374 294 349 c 0
 283 319 284 316 306 316 c 0
 317 316 326 325 326 335 c 0
EndSplineSet
Validated: 33
EndChar

StartChar: asterisk
Encoding: 42 42 104
Width: 614
VWidth: 0
Flags: HW
LayerCount: 2
Back
Fore
SplineSet
346 758 m 0
 370 795 378 798 406 780 c 0
 419 772 423 755 417 725 c 0
 409 688 413 680 443 669 c 0
 493 650 481 610 424 604 c 0
 375 599 372 593 400 539 c 0
 414 512 416 496 405 483 c 0
 384 458 371 462 338 500 c 0
 313 529 306 531 276 517 c 0
 236 499 214 521 226 569 c 0
 232 592 227 600 203 603 c 0
 158 609 159 659 204 670 c 0
 233 677 238 685 234 720 c 0
 229 773 261 789 299 751 c 0
 325 725 325 725 346 758 c 0
EndSplineSet
Validated: 33
EndChar

StartChar: plus
Encoding: 43 43 105
Width: 614
VWidth: 0
Flags: HMW
HStem: 256 77<151 242>
LayerCount: 2
Back
Fore
SplineSet
277 468 m 0
 285 493 333 490 343 464 c 0
 347 452 347 418 342 389 c 2
 336 371 l 1
 380 336 l 2
 491 336 506 259 396 252 c 2
 331 248 l 1
 324 184 l 2
 316 112 296 84 264 96 c 0
 248 102 242 123 242 180 c 2
 242 256 l 1
 181 253 l 2
 64 247 60 312 176 331 c 0
 247 342 248 344 260 397 c 0
 267 427 274 459 277 468 c 0
EndSplineSet
Validated: 33
EndChar

StartChar: semicolon
Encoding: 59 59 106
Width: 614
VWidth: 0
Flags: HW
LayerCount: 2
Back
Fore
SplineSet
266 199 m 0
 271 211 291 221 313 221 c 0
 379 221 386 151 330 63 c 0
 286 -6 239 -37 215 -13 c 0
 202 0 205 16 228 57 c 0
 244 86 258 126 258 144 c 0
 258 163 261 187 266 199 c 0
269 444 m 0
 305 480 405 402 386 353 c 0
 375 325 351 324 299 351 c 0
 261 371 245 420 269 444 c 0
EndSplineSet
Validated: 33
EndChar

StartChar: less
Encoding: 60 60 107
Width: 614
VWidth: 0
Flags: HW
LayerCount: 2
Back
Fore
SplineSet
290 375 m 4
 380 433 442 444 450 402 c 4
 453 387 418 359 345 317 c 4
 285 282 236 249 236 242 c 4
 236 235 256 217 280 202 c 4
 304 187 338 159 356 140 c 4
 388 106 391 57 361 57 c 4
 343 57 217 143 150 201 c 4
 102 243 108 285 165 305 c 4
 185 312 241 343 290 375 c 4
EndSplineSet
Validated: 33
EndChar

StartChar: greater
Encoding: 62 62 108
Width: 614
VWidth: 0
Flags: HW
LayerCount: 2
Back
Fore
SplineSet
199 430 m 0
 210 457 236 458 290 430 c 0
 351 399 476 291 476 269 c 0
 476 259 414 209 339 159 c 0
 218 78 200 70 182 88 c 0
 152 118 169 140 272 211 c 2
 367 277 l 1
 330 308 l 2
 309 326 273 349 249 362 c 0
 197 389 188 401 199 430 c 0
EndSplineSet
Validated: 33
EndChar

StartChar: NameMe.263
Encoding: 263 183 109
Width: 614
VWidth: 0
Flags: HMW
HStem: 256 77
LayerCount: 2
Fore
SplineSet
253 324 m 0
 262 335 280 344 294 344 c 0
 328 344 352 310 342 277 c 0
 329 238 259 238 246 277 c 0
 241 292 244 313 253 324 c 0
EndSplineSet
Validated: 33
EndChar

